<?xml version="1.0" encoding="UTF-8"?>
<svg xmlns="http://www.w3.org/2000/svg" xmlns:xlink="http://www.w3.org/1999/xlink" width="30px" height="30px" viewBox="0 0 30 30" version="1.1">
<g id="surface1">
<path style=" stroke:none;fill-rule:nonzero;fill:rgb(70.19608%,60.000002%,78.431374%);fill-opacity:1;" d="M 19.570312 15.402344 C 19.464844 15.457031 19.351562 15.464844 19.242188 15.425781 C 15.5 14.011719 11.253906 15.191406 10.425781 15.445312 C 10.328125 15.476562 10.230469 15.460938 10.140625 15.414062 C 7.789062 14.164062 5.472656 15.050781 4.757812 15.378906 C 4.628906 15.441406 4.484375 15.429688 4.371094 15.339844 C 3.285156 14.496094 1.667969 15.492188 1.667969 15.492188 C 1.667969 8.398438 7.546875 2.648438 14.796875 2.648438 C 14.796875 2.648438 17.933594 3.902344 19.570312 15.402344 Z M 19.570312 15.402344 "/>
<path style=" stroke:none;fill-rule:nonzero;fill:rgb(70.19608%,60.000002%,78.431374%);fill-opacity:1;" d="M 24.988281 15.390625 C 24.964844 15.386719 24.949219 15.386719 24.929688 15.378906 C 24.914062 15.371094 24.894531 15.363281 24.875 15.355469 C 24.921875 15.371094 24.957031 15.382812 24.988281 15.390625 Z M 24.988281 15.390625 "/>
<path style=" stroke:none;fill-rule:nonzero;fill:rgb(70.19608%,60.000002%,78.431374%);fill-opacity:1;" d="M 28.328125 15.414062 L 28.328125 15.433594 C 28.328125 15.4375 28.328125 15.441406 28.324219 15.445312 C 28.328125 15.425781 28.328125 15.414062 28.328125 15.414062 Z M 28.328125 15.414062 "/>
<path style=" stroke:none;fill-rule:nonzero;fill:rgb(53.725493%,40.392157%,66.666669%);fill-opacity:1;" d="M 28.328125 15.414062 C 28.328125 15.414062 28.328125 15.425781 28.324219 15.445312 C 28.324219 15.453125 28.324219 15.457031 28.320312 15.464844 C 28.320312 15.476562 28.316406 15.488281 28.3125 15.496094 C 28.304688 15.511719 28.296875 15.527344 28.285156 15.542969 C 28.269531 15.554688 28.257812 15.5625 28.242188 15.566406 C 28.230469 15.574219 28.207031 15.578125 28.1875 15.578125 C 28.167969 15.578125 28.148438 15.574219 28.128906 15.566406 C 28.082031 15.546875 28.035156 15.523438 27.980469 15.5 C 27.953125 15.488281 27.921875 15.476562 27.886719 15.460938 C 27.246094 15.238281 25.328125 15.332031 25.328125 15.332031 C 25.269531 15.378906 25.207031 15.402344 25.140625 15.414062 C 25.140625 15.414062 25.132812 15.414062 25.117188 15.414062 C 25.105469 15.414062 25.078125 15.410156 25.046875 15.402344 L 25.027344 15.402344 C 25.023438 15.398438 25.019531 15.398438 25.015625 15.398438 C 25.015625 15.398438 25.011719 15.398438 25.011719 15.394531 C 25.003906 15.394531 25 15.390625 24.992188 15.390625 L 24.988281 15.390625 C 24.957031 15.382812 24.921875 15.371094 24.875 15.355469 C 24.867188 15.355469 24.859375 15.351562 24.851562 15.347656 C 24.824219 15.332031 24.800781 15.320312 24.769531 15.3125 C 24.742188 15.296875 24.707031 15.285156 24.675781 15.265625 C 24.660156 15.257812 24.640625 15.253906 24.617188 15.246094 C 23.898438 15.042969 19.570312 15.402344 19.570312 15.402344 C 17.933594 3.902344 14.796875 2.648438 14.796875 2.648438 C 18.996094 2.648438 22.917969 4.445312 25.445312 7.449219 C 25.484375 7.492188 25.519531 7.535156 25.554688 7.578125 C 25.664062 7.710938 25.765625 7.847656 25.871094 7.980469 C 28.570312 11.496094 28.328125 15.414062 28.328125 15.414062 Z M 28.328125 15.414062 "/>
<path style=" stroke:none;fill-rule:nonzero;fill:rgb(53.725493%,40.392157%,66.666669%);fill-opacity:1;" d="M 25.015625 15.398438 C 25.007812 15.398438 25 15.394531 24.992188 15.390625 C 25 15.390625 25.003906 15.394531 25.011719 15.394531 C 25.011719 15.398438 25.015625 15.398438 25.015625 15.398438 Z M 25.015625 15.398438 "/>
<path style=" stroke:none;fill-rule:nonzero;fill:rgb(53.725493%,40.392157%,66.666669%);fill-opacity:1;" d="M 28.128906 15.566406 C 28.097656 15.558594 28.050781 15.542969 28 15.511719 C 27.996094 15.507812 27.988281 15.503906 27.980469 15.5 C 28.035156 15.523438 28.082031 15.546875 28.128906 15.566406 Z M 28.128906 15.566406 "/>
<path style="fill:none;stroke-width:2;stroke-linecap:round;stroke-linejoin:round;stroke:rgb(0%,0%,0%);stroke-opacity:1;stroke-miterlimit:10;" d="M 66.665625 32.45625 C 64.396875 17.625 51.309375 6.35625 35.503125 6.35625 C 18.103125 6.35625 4.003125 20.15625 4.003125 37.18125 C 4.003125 37.18125 7.875 34.790625 10.48125 36.815625 C 10.753125 37.021875 11.11875 37.059375 11.428125 36.909375 C 13.134375 36.1125 18.69375 33.99375 24.3375 36.99375 C 24.553125 37.10625 24.796875 37.134375 25.03125 37.06875 C 27.028125 36.45 37.209375 33.628125 46.18125 37.021875 C 46.434375 37.115625 46.725 37.096875 46.959375 36.975 C 52.575 34.0125 58.115625 36.1125 59.83125 36.909375 C 60.15 37.05 60.515625 37.021875 60.7875 36.80625 C 63.375 34.78125 67.0125 37.040625 67.0125 37.040625 " transform="matrix(0.416667,0,0,0.416667,0,0)"/>
<path style="fill:none;stroke-width:2;stroke-linecap:round;stroke-linejoin:round;stroke:rgb(0%,0%,0%);stroke-opacity:1;stroke-miterlimit:10;" d="M 45.35625 62.540625 C 45.35625 65.559375 43.14375 67.996875 40.425 67.996875 C 37.70625 67.996875 35.503125 65.559375 35.503125 62.540625 L 35.503125 35.390625 " transform="matrix(0.416667,0,0,0.416667,0,0)"/>
<path style="fill:none;stroke-width:2;stroke-linecap:round;stroke-linejoin:round;stroke:rgb(0%,0%,0%);stroke-opacity:1;stroke-miterlimit:10;" d="M 35.503125 6.35625 L 35.503125 4.003125 " transform="matrix(0.416667,0,0,0.416667,0,0)"/>
<path style="fill:none;stroke-width:2;stroke-linecap:round;stroke-linejoin:round;stroke:rgb(0%,0%,0%);stroke-opacity:1;stroke-miterlimit:10;" d="M 10.921875 36.99375 C 16.584375 4.659375 35.503125 6.35625 35.503125 6.35625 C 35.503125 6.35625 25.9125 7.284375 24.684375 37.096875 " transform="matrix(0.416667,0,0,0.416667,0,0)"/>
<path style="fill:none;stroke-width:2;stroke-linecap:round;stroke-linejoin:round;stroke:rgb(0%,0%,0%);stroke-opacity:1;stroke-miterlimit:10;" d="M 60.3375 36.99375 C 54.675 4.65 35.503125 6.35625 35.503125 6.35625 C 35.503125 6.35625 45.346875 7.265625 46.575 37.078125 " transform="matrix(0.416667,0,0,0.416667,0,0)"/>
</g>
</svg>
